<svg width="19" height="19" viewBox="0 0 19 19" fill="none" xmlns="http://www.w3.org/2000/svg">
<path d="M12.7154 12.383V14.7133C12.7154 15.4291 12.1332 16.0113 11.4174 16.0113H3.62891C2.91306 16.0113 2.33083 15.4291 2.33083 14.7133V6.9248C2.33083 6.20896 2.91306 5.62673 3.62891 5.62673H6.00283L8.08045 3.5498H3.62891C1.76452 3.5498 0.253906 5.06042 0.253906 6.9248V14.7133C0.253906 16.5777 1.76452 18.0883 3.62891 18.0883H11.4174C13.2818 18.0883 14.7924 16.5777 14.7924 14.7133V10.3053L12.7154 12.383Z" fill="#2F80ED"/>
<path d="M15.8874 0.0884151H8.78499C7.47929 0.0897997 7.56999 0.441492 8.25883 1.12965L10.4881 3.35888L6.66653 7.17972C5.87383 7.97172 5.87453 9.25526 6.66653 10.0466L8.33499 11.7157C9.12699 12.5056 10.4091 12.5063 11.2011 11.715L15.0227 7.89349L17.2104 10.0812C17.9726 10.8427 18.2537 10.8628 18.2537 9.55711L18.2544 2.45542C18.2537 0.0759534 18.271 0.0877228 15.8874 0.0884151Z" fill="#2F80ED"/>
</svg>
