<svg width="47" height="41" viewBox="0 0 47 41" fill="none" xmlns="http://www.w3.org/2000/svg">
<path d="M23.351 22.5952C25.6606 22.5952 27.5396 20.7162 27.5396 18.4065C27.5396 16.0969 25.6606 14.2179 23.351 14.2179C21.0413 14.2179 19.1622 16.0969 19.1622 18.4065C19.1622 20.7162 21.0413 22.5952 23.351 22.5952ZM23.351 16.4197C24.4466 16.4197 25.3378 17.311 25.3378 18.4065C25.3378 19.5022 24.4466 20.3934 23.351 20.3934C22.2554 20.3934 21.364 19.502 21.364 18.4065C21.364 17.311 22.2554 16.4197 23.351 16.4197ZM12.6912 24.5718C13.7504 26.4062 15.0317 27.2055 16.0541 26.6777L17.665 25.9581C18.2834 26.4254 18.9519 26.8117 19.6632 27.1126L19.8457 28.8714C19.9045 30.0174 21.2379 30.7262 23.3509 30.7262C25.4689 30.7262 26.8014 30.0159 26.8558 28.867L27.038 27.1127C27.7494 26.8117 28.4179 26.4254 29.0365 25.9582L30.6513 26.6798C31.6732 27.2023 32.9538 26.402 34.0103 24.572C34.3913 23.912 34.6638 23.2241 34.7775 22.6347C35.015 21.4037 34.5189 20.8453 34.1552 20.6084L32.7303 19.576C32.7781 19.189 32.8022 18.7982 32.8022 18.4077C32.8022 18.0235 32.7788 17.6387 32.7326 17.2577L34.1555 16.2266C34.5191 15.9895 35.015 15.4312 34.7776 14.2004C34.6638 13.6112 34.3914 12.9231 34.0105 12.2634C32.9544 10.4336 31.6743 9.6335 30.6524 10.1548L29.0529 10.8696C28.4293 10.3963 27.7547 10.0056 27.036 9.70188L26.856 7.9682C26.8015 6.81922 25.4691 6.10913 23.351 6.10913C21.2385 6.10913 19.9054 6.81738 19.8459 7.96281L19.6656 9.702C18.9469 10.0059 18.2722 10.3966 17.6486 10.8698L16.0543 10.1572C15.0318 9.62959 13.7504 10.4288 12.6913 12.2632C11.6353 14.0921 11.582 15.6002 12.5433 16.2249L13.9691 17.2578C13.9227 17.6386 13.8995 18.0233 13.8995 18.4076C13.8995 18.7983 13.9235 19.1891 13.9713 19.5757L12.5458 20.6084C11.5817 21.2322 11.6344 22.7414 12.6912 24.5718ZM16.2449 19.8513C16.1496 19.3796 16.1012 18.8938 16.1012 18.4075C16.1012 17.9268 16.1487 17.4461 16.242 16.9786C16.3264 16.5565 16.157 16.1238 15.8084 15.8712L14.0842 14.6223C14.1345 14.3646 14.2814 13.9122 14.5978 13.364C14.9143 12.816 15.2325 12.4626 15.4305 12.29L17.3705 13.1569C17.765 13.333 18.2256 13.2623 18.5492 12.9762C19.2817 12.3282 20.1201 11.8427 21.041 11.5334C21.45 11.3961 21.741 11.0324 21.7855 10.6033L22.0041 8.49468C22.2526 8.40942 22.7178 8.31046 23.3509 8.31046C23.9836 8.31046 24.4486 8.40929 24.697 8.49455L24.9159 10.6034C24.9604 11.0325 25.2516 11.3959 25.6605 11.5333C26.5812 11.8425 27.4195 12.3279 28.1521 12.976C28.4758 13.2621 28.9364 13.3328 29.3308 13.1565L31.2707 12.2896C31.4688 12.4621 31.7872 12.8154 32.1036 13.3637C32.4201 13.9116 32.5668 14.3639 32.6172 14.6216L30.8931 15.8709C30.5446 16.1234 30.3753 16.5559 30.4595 16.9779C30.553 17.4462 30.6004 17.927 30.6004 18.4072C30.6004 18.8927 30.5519 19.3786 30.4564 19.8516C30.3712 20.2744 30.5404 20.708 30.8897 20.961L32.6171 22.2126C32.5669 22.4703 32.4199 22.9226 32.1034 23.4707C31.7869 24.0188 31.4688 24.3722 31.2706 24.5447L29.316 23.6712C28.9226 23.4954 28.4628 23.5652 28.1394 23.85C27.4101 24.4922 26.5767 24.9735 25.6623 25.2808C25.2535 25.4183 24.9625 25.7817 24.918 26.2107L24.6968 28.3401C24.4485 28.4254 23.9836 28.5242 23.3508 28.5242C22.7176 28.5242 22.2525 28.4253 22.004 28.34L21.7831 26.211C21.7386 25.782 21.4477 25.4184 21.0389 25.2811C20.1244 24.9737 19.2911 24.4923 18.5621 23.8503C18.2388 23.5655 17.7792 23.4955 17.3855 23.6713L15.4304 24.5447C15.2325 24.3722 14.9143 24.0189 14.5977 23.4708C14.2813 22.9227 14.1344 22.4702 14.0841 22.2125L15.8115 20.9609C16.1611 20.7079 16.3304 20.2741 16.2449 19.8513ZM45.1885 0.968262H1.51332C0.90525 0.968262 0.384766 1.43113 0.384766 2.0392V34.7958C0.384766 35.4039 0.90525 35.9528 1.51332 35.9528H22.2806V38.7662H15.9293C15.3213 38.7662 14.8284 39.259 14.8284 39.8671C14.8284 40.4752 15.3213 40.968 15.9293 40.968H23.3958C23.4044 40.968 23.4129 40.9683 23.4215 40.9683C23.4301 40.9683 23.4386 40.968 23.4472 40.968H30.9138C31.5218 40.968 32.0147 40.4752 32.0147 39.8671C32.0147 39.259 31.5218 38.7662 30.9138 38.7662H24.4824V35.9528H45.1885C45.7966 35.9528 46.2559 35.4039 46.2559 34.7958V2.0392C46.2559 1.43113 45.7966 0.968262 45.1885 0.968262ZM44.0541 33.7508H23.4215H2.58658V3.17008H44.0541V33.7508Z" fill="#2F80ED"/>
</svg>
