<svg width="34" height="41" viewBox="0 0 34 41" fill="none" xmlns="http://www.w3.org/2000/svg">
<path d="M20.891 18.8667H6.5923C6.16381 18.8667 5.81641 19.2141 5.81641 19.6426C5.81641 20.0711 6.16381 20.4185 6.5923 20.4185H20.891C21.3195 20.4185 21.6669 20.0711 21.6669 19.6426C21.6669 19.2141 21.3195 18.8667 20.891 18.8667Z" fill="#2F80ED"/>
<path d="M20.891 22.3354H6.5923C6.16381 22.3354 5.81641 22.6829 5.81641 23.1113C5.81641 23.5398 6.16381 23.8872 6.5923 23.8872H20.891C21.3195 23.8872 21.6669 23.5398 21.6669 23.1113C21.6669 22.6829 21.3195 22.3354 20.891 22.3354Z" fill="#2F80ED"/>
<path d="M20.891 25.8047H6.5923C6.16381 25.8047 5.81641 26.1521 5.81641 26.5806C5.81641 27.0091 6.16381 27.3565 6.5923 27.3565H20.891C21.3195 27.3565 21.6669 27.0091 21.6669 26.5806C21.6669 26.1521 21.3195 25.8047 20.891 25.8047Z" fill="#2F80ED"/>
<path d="M20.891 29.2734H6.5923C6.16381 29.2734 5.81641 29.6208 5.81641 30.0493C5.81641 30.4778 6.16381 30.8252 6.5923 30.8252H20.891C21.3195 30.8252 21.6669 30.4778 21.6669 30.0493C21.6669 29.6208 21.3195 29.2734 20.891 29.2734Z" fill="#2F80ED"/>
<path d="M33.7971 9.70809C33.7971 4.79359 29.7987 0.79541 24.8842 0.79541C20.3978 0.79541 16.6768 4.12806 16.0623 8.44727H2.10458C1.40821 8.44727 0.84375 9.01173 0.84375 9.70809V39.5346C0.84375 40.2309 1.40821 40.7954 2.10458 40.7954H24.8842C25.5806 40.7954 26.145 40.2309 26.145 39.5346V18.53C30.4644 17.9155 33.7971 14.1945 33.7971 9.70809ZM3.3654 38.2738V10.9689H16.0623C16.2997 12.6377 16.9998 14.1592 18.0298 15.3979H6.59292C6.16444 15.3979 5.81703 15.7453 5.81703 16.1738C5.81703 16.6023 6.16444 16.9497 6.59292 16.9497H19.6981C20.8366 17.7673 22.174 18.3238 23.6234 18.53V38.2738H3.3654ZM24.8856 16.0991C24.8852 16.0991 24.8848 16.0991 24.8844 16.0991C24.884 16.0991 24.8836 16.0991 24.8832 16.0991C21.3597 16.0985 18.4934 13.2316 18.4934 9.70809C18.4934 6.18418 21.3605 3.31706 24.8844 3.31706C28.4083 3.31706 31.2754 6.18418 31.2754 9.70809C31.2754 13.2318 28.4089 16.0985 24.8856 16.0991Z" fill="#2F80ED"/>
<path d="M26.7818 10.0958H25.2725V7.35744C25.2725 6.92895 24.9251 6.58154 24.4966 6.58154C24.0681 6.58154 23.7207 6.92895 23.7207 7.35744V10.8717C23.7207 11.3001 24.0681 11.6475 24.4966 11.6475H26.7818C27.2103 11.6475 27.5577 11.3001 27.5577 10.8717C27.5577 10.4432 27.2103 10.0958 26.7818 10.0958Z" fill="#2F80ED"/>
</svg>
