<svg width="16" height="16" viewBox="0 0 16 16" fill="none" xmlns="http://www.w3.org/2000/svg">
<path d="M15.4488 14.6587L15.4484 14.6583L11.1706 10.3805C12.0399 9.33651 12.5686 7.9975 12.5686 6.53334C12.5686 3.20868 9.86384 0.503906 6.53917 0.503906C3.21451 0.503906 0.509766 3.20868 0.509766 6.53334C0.509766 9.85801 3.21454 12.5628 6.5392 12.5628C8.00334 12.5628 9.34237 12.0341 10.3864 11.1642L14.6641 15.4419C14.7723 15.5501 14.9144 15.6046 15.0563 15.6046C15.1979 15.6046 15.3396 15.5502 15.4475 15.4434L15.4489 15.4421C15.6645 15.2253 15.6645 14.8755 15.4488 14.6587ZM6.5392 11.4544C3.8259 11.4544 1.61815 9.24668 1.61815 6.53337C1.61815 3.82006 3.82587 1.61229 6.5392 1.61229C9.25253 1.61229 11.4603 3.82003 11.4603 6.53334C11.4603 9.24665 9.2525 11.4544 6.5392 11.4544Z" fill="#CDCDCD" stroke="#CDCDCD" stroke-width="0.5"/>
</svg>
