<svg width="19" height="23" viewBox="0 0 19 23" fill="none" xmlns="http://www.w3.org/2000/svg">
<g opacity="0.5">
<path d="M11.1267 10.5586H3.31639C3.08234 10.5586 2.89258 10.7484 2.89258 10.9824C2.89258 11.2165 3.08234 11.4062 3.31639 11.4062H11.1267C11.3608 11.4062 11.5506 11.2165 11.5506 10.9824C11.5506 10.7484 11.3608 10.5586 11.1267 10.5586Z" fill="#3D3D3D"/>
<path d="M11.1267 12.4531H3.31639C3.08234 12.4531 2.89258 12.6429 2.89258 12.8769C2.89258 13.111 3.08234 13.3008 3.31639 13.3008H11.1267C11.3608 13.3008 11.5506 13.111 11.5506 12.8769C11.5506 12.6429 11.3608 12.4531 11.1267 12.4531Z" fill="#3D3D3D"/>
<path d="M11.1267 14.3486H3.31639C3.08234 14.3486 2.89258 14.5384 2.89258 14.7724C2.89258 15.0065 3.08234 15.1963 3.31639 15.1963H11.1267C11.3608 15.1963 11.5506 15.0065 11.5506 14.7724C11.5506 14.5384 11.3608 14.3486 11.1267 14.3486Z" fill="#3D3D3D"/>
<path d="M11.1267 16.2432H3.31639C3.08234 16.2432 2.89258 16.4329 2.89258 16.667C2.89258 16.901 3.08234 17.0908 3.31639 17.0908H11.1267C11.3608 17.0908 11.5506 16.901 11.5506 16.667C11.5506 16.4329 11.3608 16.2432 11.1267 16.2432Z" fill="#3D3D3D"/>
<path d="M18.1758 5.55585C18.1758 2.87141 15.9918 0.6875 13.3073 0.6875C10.8567 0.6875 8.82423 2.50789 8.48857 4.86715H0.864478C0.484106 4.86715 0.175781 5.17547 0.175781 5.55585V21.8479C0.175781 22.2283 0.484106 22.5366 0.864478 22.5366H13.3073C13.6877 22.5366 13.996 22.2283 13.996 21.8479V10.3746C16.3554 10.0389 18.1758 8.00644 18.1758 5.55585ZM1.55318 21.1592V6.24454H8.48857C8.61825 7.15606 9.00064 7.98716 9.56325 8.66378H3.31613C3.08208 8.66378 2.89232 8.85354 2.89232 9.08759C2.89232 9.32164 3.08208 9.5114 3.31613 9.5114H10.4746C11.0964 9.958 11.8269 10.262 12.6186 10.3746V21.1592H1.55318ZM13.3081 9.0468C13.3079 9.0468 13.3076 9.0468 13.3074 9.0468C13.3072 9.0468 13.307 9.0468 13.3068 9.0468C11.3822 9.04648 9.81648 7.48049 9.81648 5.55585C9.81648 3.63099 11.3826 2.06489 13.3074 2.06489C15.2323 2.06489 16.7984 3.63099 16.7984 5.55585C16.7984 7.4806 15.2326 9.04648 13.3081 9.0468Z" fill="#3D3D3D"/>
<path d="M14.3439 5.76819H13.5195V4.27245C13.5195 4.0384 13.3297 3.84863 13.0957 3.84863C12.8616 3.84863 12.6719 4.0384 12.6719 4.27245V6.19201C12.6719 6.42606 12.8616 6.61582 13.0957 6.61582H14.3439C14.578 6.61582 14.7677 6.42606 14.7677 6.19201C14.7677 5.95795 14.578 5.76819 14.3439 5.76819Z" fill="#3D3D3D"/>
</g>
</svg>
