<svg width="26" height="26" viewBox="0 0 26 26" fill="none" xmlns="http://www.w3.org/2000/svg">
<path d="M13.9242 12.4931H23.944C24.4242 12.4931 24.8135 12.104 24.8135 11.6236C24.8135 5.61928 19.9286 0.734375 13.9242 0.734375C13.444 0.734375 13.0547 1.12357 13.0547 1.60388V11.6236C13.0547 12.1038 13.444 12.4931 13.9242 12.4931ZM14.7937 2.51443C19.1467 2.92658 22.6213 6.40102 23.0334 10.7541H14.7937V2.51443Z" fill="#2F80ED"/>
<path d="M11.921 14.4851V4.82556C11.921 4.34525 11.5317 3.95605 11.0515 3.95605C5.04701 3.95605 0.162109 8.84095 0.162109 14.8453C0.162109 20.8497 5.04701 25.7346 11.0515 25.7346C13.9599 25.7346 16.6944 24.6018 18.7513 22.5451C18.9226 22.3739 19.0139 22.1381 19.0046 21.896C18.996 21.6753 18.9033 21.4662 18.7473 21.3117L11.921 14.4851ZM11.0515 23.9956C6.00602 23.9956 1.90113 19.8908 1.90113 14.8453C1.90113 10.093 5.54263 6.17527 10.182 5.73611V14.8453C10.182 15.0759 10.2736 15.297 10.4367 15.4602L16.8781 21.9018C15.2417 23.2576 13.2031 23.9956 11.0515 23.9956Z" fill="#2F80ED"/>
<path d="M24.2936 13.4009H14.2738C13.9221 13.4009 13.6051 13.6127 13.4705 13.9377C13.3359 14.2626 13.4103 14.6365 13.659 14.8853L20.7426 21.9689C20.7507 21.9769 20.7591 21.985 20.7674 21.9928L20.7689 21.9942C20.9358 22.1483 21.1475 22.2249 21.3588 22.2249C21.5818 22.2249 21.8043 22.1397 21.9737 21.9703C24.0304 19.9137 25.1631 17.1792 25.1631 14.2705C25.1631 13.7901 24.7738 13.4009 24.2936 13.4009ZM21.3302 20.0971L16.373 15.1399H23.3836C23.2123 16.9684 22.502 18.6831 21.3302 20.0971Z" fill="#2F80ED"/>
</svg>
