<svg width="51" height="41" viewBox="0 0 51 41" fill="none" xmlns="http://www.w3.org/2000/svg">
<path d="M11.3459 21.2578H4.7414C3.86802 21.2578 3.16016 21.9657 3.16016 22.8391V39.3867C3.16016 40.2601 3.86802 40.968 4.7414 40.968H11.3459C12.2193 40.968 12.9271 40.2601 12.9271 39.3867V22.8391C12.9271 21.9657 12.2193 21.2578 11.3459 21.2578ZM9.76464 37.8053H6.32264V24.4201H9.76464V37.8053Z" fill="#2F80ED"/>
<path d="M23.7774 12.5015H17.173C16.2997 12.5015 15.5918 13.2093 15.5918 14.0827V39.3871C15.5918 40.2605 16.2997 40.9683 17.173 40.9683H23.7775C24.6509 40.9683 25.3588 40.2605 25.3588 39.3871V14.0827C25.3586 13.2095 24.6507 12.5015 23.7774 12.5015ZM22.1961 37.8059H18.7541V15.6639H22.1961V37.8059Z" fill="#2F80ED"/>
<path d="M36.2111 22.5645H29.6066C28.7333 22.5645 28.0254 23.2723 28.0254 24.1457V39.3869C28.0254 40.2603 28.7333 40.9681 29.6066 40.9681H36.2111C37.0845 40.9681 37.7924 40.2603 37.7924 39.3869V24.1457C37.7924 23.2723 37.0845 22.5645 36.2111 22.5645ZM34.6299 37.8057H31.1879V25.7269H34.6299V37.8057Z" fill="#2F80ED"/>
<path d="M48.6449 13.0845H42.0402C41.1669 13.0845 40.459 13.7923 40.459 14.6657V39.3865C40.459 40.2598 41.1669 40.9677 42.0402 40.9677H48.6447C49.5181 40.9677 50.2259 40.2598 50.2259 39.3865V14.6657C50.2261 13.7923 49.5181 13.0845 48.6449 13.0845ZM47.0636 37.8052H43.6215V16.247H47.0635V37.8052H47.0636Z" fill="#2F80ED"/>
<path d="M31.9796 15.9452C32.5552 16.3635 33.3393 16.3457 33.8955 15.9019L45.7143 6.47037L45.6619 8.02473C45.6326 8.89757 46.3162 9.62899 47.189 9.65833C47.2073 9.65885 47.2252 9.65921 47.2433 9.65921C48.0921 9.65921 48.794 8.98577 48.8228 8.1312L49.0092 2.60284C49.0238 2.16519 48.8565 1.74106 48.547 1.43149C48.2374 1.12174 47.8119 0.953781 47.3756 0.969242L41.8472 1.15565C40.9744 1.18499 40.2908 1.91658 40.3201 2.78925C40.3495 3.66192 41.0781 4.34413 41.9537 4.31637L43.4051 4.26753L32.8648 12.679L20.879 3.96727C20.354 3.58567 19.6491 3.56353 19.1015 3.91158L1.27862 15.2315C0.541415 15.6997 0.32338 16.6769 0.791602 17.414C1.09292 17.8883 1.60471 18.1476 2.12775 18.1476C2.41764 18.1476 2.71123 18.0679 2.97406 17.901L19.8891 7.15733L31.9796 15.9452Z" fill="#2F80ED"/>
</svg>
