<svg width="35" height="41" viewBox="0 0 35 41" fill="none" xmlns="http://www.w3.org/2000/svg">
<path d="M34.7019 34.8147C34.7019 39.0419 25.9291 40.9683 17.7787 40.9683C9.62827 40.9683 0.855469 39.0419 0.855469 34.8147C0.855469 31.5619 5.69547 30.0275 9.75467 29.3123C10.5947 29.1667 11.3899 29.7251 11.5371 30.5619C11.6843 31.3987 11.1259 32.1971 10.2891 32.3443C5.39307 33.2035 4.01067 34.5507 3.93067 34.8387C4.16587 35.6451 8.78187 37.8915 17.7787 37.8915C26.7755 37.8915 31.3915 35.6451 31.6283 34.7907C31.5467 34.5507 30.1563 33.1955 25.2251 32.3379C24.3883 32.1923 23.8283 31.3939 23.9739 30.5571C24.1195 29.7219 24.9035 29.1635 25.7547 29.3059C29.8363 30.0179 34.7019 31.5491 34.7019 34.8147ZM11.6251 25.5843H13.1627V34.8147C13.1627 35.6627 13.8539 36.3523 14.7019 36.3523H20.8555C21.7035 36.3523 22.3947 35.6611 22.3947 34.8147V25.5843H23.9323C24.7803 25.5843 25.4715 24.8931 25.4715 24.0451V14.8147C25.4715 14.0275 24.2363 12.2995 22.0923 12.0499C21.2123 11.8819 19.5147 11.7619 17.8027 11.7619C16.0747 11.7603 14.3531 11.8819 13.4635 12.0499C11.3211 12.3011 10.0859 14.0291 10.0859 14.8147V24.0451C10.0859 24.8931 10.7771 25.5843 11.6251 25.5843ZM17.7787 10.1987C20.3275 10.1987 22.3947 8.13146 22.3947 5.58266C22.3947 3.03546 20.3275 0.968262 17.7787 0.968262C15.2299 0.968262 13.1627 3.03546 13.1627 5.58426C13.1627 8.13306 15.2299 10.1987 17.7787 10.1987Z" fill="#2F80ED"/>
</svg>
